<svg xmlns="http://www.w3.org/2000/svg" viewBox="0 0 192 192" width="192" height="192">
  <!-- Background circle -->
  <circle cx="96" cy="96" r="90" fill="#4F46E5" stroke="#312E81" stroke-width="12"/>
  
  <!-- Chat bubble shape -->
  <path d="M48 60 C48 48, 60 36, 72 36 L144 36 C156 36, 168 48, 168 60 L168 108 C168 120, 156 132, 144 132 L96 132 L72 156 L72 132 C60 132, 48 120, 48 108 Z" fill="#FFFFFF"/>
  
  <!-- Five dots representing the 5 steps arranged in a pattern -->
  <circle cx="72" cy="78" r="9" fill="#4F46E5"/>
  <circle cx="96" cy="78" r="9" fill="#4F46E5"/>
  <circle cx="120" cy="78" r="9" fill="#4F46E5"/>
  <circle cx="144" cy="78" r="9" fill="#4F46E5"/>
  <circle cx="108" cy="102" r="9" fill="#4F46E5"/>
  
  <!-- Small connecting lines to suggest flow -->
  <line x1="81" y1="78" x2="87" y2="78" stroke="#4F46E5" stroke-width="3" stroke-linecap="round"/>
  <line x1="105" y1="78" x2="111" y2="78" stroke="#4F46E5" stroke-width="3" stroke-linecap="round"/>
  <line x1="129" y1="78" x2="135" y2="78" stroke="#4F46E5" stroke-width="3" stroke-linecap="round"/>
  <line x1="120" y1="87" x2="114" y2="93" stroke="#4F46E5" stroke-width="3" stroke-linecap="round"/>
</svg>
